<mxfile host="app.diagrams.net" agent="Mozilla/5.0 (Windows NT 10.0; Win64; x64) AppleWebKit/537.36 (KHTML, like Gecko) Chrome/130.0.0.0 Safari/537.36 Edg/130.0.0.0" version="24.8.3">
  <diagram name="PÃ¡gina-1" id="SKr4JnAI6dUfP8ET-OXA">
    <mxGraphModel dx="1280" dy="1424" grid="1" gridSize="10" guides="1" tooltips="1" connect="1" arrows="1" fold="1" page="1" pageScale="1" pageWidth="1100" pageHeight="850" math="0" shadow="0">
      <root>
        <mxCell id="0" />
        <mxCell id="1" parent="0" />
        <mxCell id="InTDDSVPD--su6Mw10KX-1" value="USUARIO" style="rounded=0;whiteSpace=wrap;html=1;" vertex="1" parent="1">
          <mxGeometry x="270" y="50" width="120" height="60" as="geometry" />
        </mxCell>
        <mxCell id="InTDDSVPD--su6Mw10KX-2" value="ESTUDIANTE" style="rounded=0;whiteSpace=wrap;html=1;" vertex="1" parent="1">
          <mxGeometry x="500" y="270" width="120" height="60" as="geometry" />
        </mxCell>
        <mxCell id="InTDDSVPD--su6Mw10KX-3" value="PROFESOR" style="rounded=0;whiteSpace=wrap;html=1;" vertex="1" parent="1">
          <mxGeometry x="270" y="270" width="120" height="60" as="geometry" />
        </mxCell>
        <mxCell id="InTDDSVPD--su6Mw10KX-4" value="ADMINISTRADOR" style="rounded=0;whiteSpace=wrap;html=1;" vertex="1" parent="1">
          <mxGeometry x="50" y="270" width="120" height="60" as="geometry" />
        </mxCell>
        <mxCell id="InTDDSVPD--su6Mw10KX-5" value="CLASE" style="rounded=0;whiteSpace=wrap;html=1;" vertex="1" parent="1">
          <mxGeometry x="790" y="480" width="120" height="60" as="geometry" />
        </mxCell>
        <mxCell id="InTDDSVPD--su6Mw10KX-6" value="ASISTENCIA" style="rounded=0;whiteSpace=wrap;html=1;" vertex="1" parent="1">
          <mxGeometry x="490" y="480" width="120" height="60" as="geometry" />
        </mxCell>
        <mxCell id="InTDDSVPD--su6Mw10KX-7" value="PREGUNTA" style="rounded=0;whiteSpace=wrap;html=1;" vertex="1" parent="1">
          <mxGeometry x="190" y="480" width="120" height="60" as="geometry" />
        </mxCell>
        <mxCell id="InTDDSVPD--su6Mw10KX-8" value="REPORTE" style="rounded=0;whiteSpace=wrap;html=1;" vertex="1" parent="1">
          <mxGeometry x="850" y="80" width="120" height="60" as="geometry" />
        </mxCell>
      </root>
    </mxGraphModel>
  </diagram>
</mxfile>
